<svg width="32" height="32" viewBox="0 0 32 32" fill="none" xmlns="http://www.w3.org/2000/svg">
<rect x="5" y="5" width="22" height="22" fill="black"/>
<path d="M25.3333 25.3333H16V16.3267C14.9733 17.2756 13.62 17.8667 12.1111 17.8667C8.93778 17.8667 6.35556 15.2844 6.35556 12.1111C6.35556 10.5846 6.96194 9.1207 8.04132 8.04132C9.1207 6.96194 10.5846 6.35556 12.1111 6.35556C15.2844 6.35556 17.8667 8.93778 17.8667 12.1111C17.8667 13.62 17.2756 14.9733 16.3267 16H25.3333M26.8889 2H5.11111C3.38444 2 2 3.38444 2 5.11111V26.8889C2 27.714 2.32778 28.5053 2.91122 29.0888C3.49467 29.6722 4.28599 30 5.11111 30H26.8889C27.714 30 28.5053 29.6722 29.0888 29.0888C29.6722 28.5053 30 27.714 30 26.8889V5.11111C30 4.28599 29.6722 3.49467 29.0888 2.91122C28.5053 2.32778 27.714 2 26.8889 2Z" fill="white"/>
</svg>
